# xmcd
#
# Track frame offsets:
#	150
#	20574
#	43008
#	61040
#	83866
#	101460
#	118234
#	136828
#	158279
#	177407
#	196549
#	217468
#	239041
#	256813
#	276470
#
# Disc length: 3896 seconds
#
# Revision: 8
# Processed by: cddbd v1.5.1PL2 Copyright (c) Steve Scherf et al.
# Submitted via: EasyCDDAExtractor 9.0.0.1
#
DISCID=d30f360f
DTITLE=Various Artist - The Source Hip Hop Hits Vol. 7
DYEAR=2003
DGENRE=Hip-Hop
TTITLE0=Ludacris - Act A Fool
TTITLE1=Snoop Dogg f. Pharell - Beautiful
TTITLE2=2Pac - Thugz Mansion
TTITLE3=Nelly f. Ali, Kyjuan, Murphy Lee - Air Force Ones
TTITLE4=Lil' Kim f. Mr. Cheeks - The Jump Off
TTITLE5=Fabolous f. Lil' Mo, Mike Shorey - Can't Let You Go
TTITLE6=Benzino f. Mario Winans - Rock The Party
TTITLE7=DMX - Where The Hood At
TTITLE8=Bone Crusher f. Busta Rhymes, Jadakiss - Neva Scared
TTITLE9=David Banner f. Lil' Flip - Like A Pimp
TTITLE10=Ja Rule f. Ashanti - Mesmerize
TTITLE11=LL Cool J - Luv U Better
TTITLE12=Panjabi MC f. Jay-Z - Beware...(Remix)
TTITLE13=Missy Elliott - Work It
TTITLE14=Untouchables f. Benzino - Untouchable
EXTD=
EXTT0=
EXTT1=
EXTT2=
EXTT3=
EXTT4=
EXTT5=
EXTT6=
EXTT7=
EXTT8=
EXTT9=
EXTT10=
EXTT11=
EXTT12=
EXTT13=
EXTT14=
PLAYORDER=
